<svg width="59" height="68" viewBox="0 0 59 68" fill="none" xmlns="http://www.w3.org/2000/svg">
<g clip-path="url(#clip0_0_1)">
<path d="M27.473 56.5071C27.473 57.8878 28.5923 59.0071 29.973 59.0071C31.3537 59.0071 32.473 57.8878 32.473 56.5071H27.473ZM31.7408 13.7294C30.7645 12.7531 29.1816 12.7531 28.2053 13.7294L12.2954 29.6393C11.319 30.6156 11.319 32.1985 12.2954 33.1748C13.2717 34.1511 14.8546 34.1511 15.8309 33.1748L29.973 19.0327L44.1152 33.1748C45.0915 34.1511 46.6744 34.1511 47.6507 33.1748C48.627 32.1985 48.627 30.6156 47.6507 29.6393L31.7408 13.7294ZM32.473 56.5071L32.473 15.4971H27.473L27.473 56.5071H32.473Z" fill="black"/>
</g>
<defs>
<clipPath id="clip0_0_1">
<rect width="67" height="58" fill="white" transform="translate(58.5 0.5) rotate(90)"/>
</clipPath>
</defs>
</svg>
