<svg id='doit' width="422" height="166" viewBox="0 0 422 166" fill="none" xmlns="http://www.w3.org/2000/svg">
<path d="M14.4844 159.07C14.4844 158.419 14.4193 157.312 14.2891 155.75C14.1589 154.057 13.9635 152.299 13.7031 150.477C13.5729 148.654 13.4427 146.961 13.3125 145.398C13.1823 143.836 13.0521 142.729 12.9219 142.078L11.3594 138.953C11.6198 129.969 11.75 122.091 11.75 115.32C11.75 108.549 11.5547 101.974 11.1641 95.5938C10.9036 89.2135 10.3828 82.7031 9.60156 76.0625C8.82031 69.2917 7.77865 61.4141 6.47656 52.4297C5.17448 45.7891 4.45833 40.3854 4.32812 36.2188C4.32812 34.526 4.39323 33.0286 4.52344 31.7266C4.78385 30.2943 5.17448 29.3828 5.69531 28.9922C6.34635 28.6016 7.19271 28.7969 8.23438 29.5781C9.40625 30.2292 10.9036 31.7266 12.7266 34.0703C13.1172 37.1953 13.5729 41.6224 14.0938 47.3516C14.7448 52.9505 15.3307 58.875 15.8516 65.125C16.5026 71.2448 17.0885 77.1042 17.6094 82.7031C18.1302 88.3021 18.5859 92.6641 18.9766 95.7891C19.1068 96.8307 19.237 98.5234 19.3672 100.867C19.6276 103.211 19.8229 105.685 19.9531 108.289C20.0833 110.893 20.2135 113.367 20.3438 115.711C20.474 117.924 20.5391 119.487 20.5391 120.398C21.3203 121.18 21.8411 122.286 22.1016 123.719C22.4922 125.151 22.6875 126.583 22.6875 128.016C22.6875 129.448 22.6224 130.815 22.4922 132.117C22.362 133.289 22.2969 134.07 22.2969 134.461C23.0781 136.023 24.3802 137.391 26.2031 138.562C28.026 139.604 30.0443 140.516 32.2578 141.297C34.4714 141.948 36.75 142.469 39.0938 142.859C41.4375 143.25 43.4557 143.51 45.1484 143.641C55.3047 144.292 64.4193 142.469 72.4922 138.172C80.5651 133.875 87.1406 128.016 92.2188 120.594C97.2969 113.172 100.617 104.773 102.18 95.3984C103.872 85.8932 103.352 76.3229 100.617 66.6875C98.9245 60.6979 96.125 55.4896 92.2188 51.0625C88.3125 46.6354 83.625 42.9245 78.1562 39.9297C72.8177 36.8047 66.8932 34.2656 60.3828 32.3125C54.0026 30.3594 47.4271 28.862 40.6562 27.8203C33.8854 26.7786 27.1797 26.1927 20.5391 26.0625C13.8984 25.8021 7.64844 25.8021 1.78906 26.0625C0.747396 25.6719 0.226562 25.0859 0.226562 24.3047C0.226562 23.3932 0.486979 22.4818 1.00781 21.5703C1.52865 20.5286 2.17969 19.6172 2.96094 18.8359C3.74219 17.9245 4.39323 17.3385 4.91406 17.0781C15.4609 15.125 26.0078 14.9297 36.5547 16.4922C47.1016 17.9245 56.9974 20.8542 66.2422 25.2812C75.6172 29.5781 84.0807 35.2422 91.6328 42.2734C99.1849 49.3047 105.24 57.4427 109.797 66.6875C113.443 75.6719 115.005 84.3307 114.484 92.6641C113.964 100.997 111.88 108.615 108.234 115.516C104.719 122.417 99.901 128.471 93.7812 133.68C87.6615 138.758 80.7604 142.729 73.0781 145.594C65.526 148.328 57.4531 149.76 48.8594 149.891C40.3958 150.021 31.9974 148.393 23.6641 145.008C23.6641 145.529 23.7943 146.896 24.0547 149.109C24.4453 151.193 24.5104 153.406 24.25 155.75C24.1198 157.964 23.599 159.786 22.6875 161.219C21.776 162.651 20.0833 162.911 17.6094 162C17.349 161.74 16.8281 161.284 16.0469 160.633C15.2656 159.852 14.7448 159.331 14.4844 159.07ZM131.477 160.438C127.701 157.573 124.901 154.448 123.078 151.062C121.255 147.547 120.018 143.901 119.367 140.125C118.846 136.219 118.846 132.247 119.367 128.211C120.018 124.044 120.93 119.878 122.102 115.711C122.883 113.107 123.599 109.982 124.25 106.336C125.031 102.69 125.943 99.0443 126.984 95.3984C128.026 91.6224 129.263 88.1719 130.695 85.0469C132.128 81.7917 133.885 79.2526 135.969 77.4297C137.271 76.2578 138.964 75.4115 141.047 74.8906C143.13 74.2396 145.279 73.9141 147.492 73.9141C149.706 73.7839 151.854 73.7839 153.938 73.9141C156.021 74.0443 157.714 74.1745 159.016 74.3047C164.745 74.6953 169.172 76.6484 172.297 80.1641C175.422 83.5495 177.505 87.7812 178.547 92.8594C179.589 97.9375 179.719 103.602 178.938 109.852C178.286 116.102 176.854 122.286 174.641 128.406C172.557 134.396 169.888 140.06 166.633 145.398C163.378 150.737 159.797 155.099 155.891 158.484C152.115 161.74 148.078 163.693 143.781 164.344C139.615 164.995 135.513 163.693 131.477 160.438ZM134.406 149.695C137.661 152.299 141.177 152.885 144.953 151.453C148.729 150.021 152.31 147.352 155.695 143.445C159.211 139.539 162.336 134.852 165.07 129.383C167.805 123.784 169.758 118.25 170.93 112.781C172.102 107.182 172.297 102.039 171.516 97.3516C170.734 92.5339 168.651 88.9531 165.266 86.6094C160.448 83.3542 155.891 82.3776 151.594 83.6797C147.297 84.8516 143.521 87.3906 140.266 91.2969C137.01 95.0729 134.276 99.8255 132.062 105.555C129.979 111.284 128.612 117.013 127.961 122.742C127.31 128.471 127.44 133.81 128.352 138.758C129.393 143.706 131.411 147.352 134.406 149.695ZM288.312 157.312C288.052 156.531 287.857 153.927 287.727 149.5C287.596 144.943 287.466 139.474 287.336 133.094C287.336 126.714 287.401 119.812 287.531 112.391C287.661 104.839 287.792 97.8073 287.922 91.2969C288.182 84.6562 288.443 78.9271 288.703 74.1094C289.094 69.2917 289.484 66.2318 289.875 64.9297C290.656 64.5391 291.503 64.5391 292.414 64.9297C293.326 65.3203 294.107 65.8411 294.758 66.4922C295.539 67.1432 296.19 67.9245 296.711 68.8359C297.232 69.7474 297.492 70.5286 297.492 71.1797V157.312C297.492 158.745 297.102 159.852 296.32 160.633C295.539 161.284 294.562 161.609 293.391 161.609C292.349 161.609 291.307 161.284 290.266 160.633C289.354 159.852 288.703 158.745 288.312 157.312ZM289.875 34.4609C289.745 34.0703 289.615 33.5495 289.484 32.8984C289.484 32.1172 289.484 31.3359 289.484 30.5547C289.484 29.6432 289.484 28.862 289.484 28.2109C289.615 27.4297 289.745 26.9089 289.875 26.6484C290.917 26.1276 292.089 25.6719 293.391 25.2812C294.693 24.8906 296.06 24.8255 297.492 25.0859C299.706 27.9505 301.073 30.2943 301.594 32.1172C302.245 33.8099 302.31 35.1771 301.789 36.2188C301.268 37.1302 300.357 37.7161 299.055 37.9766C297.883 38.1068 296.646 38.0417 295.344 37.7812C294.042 37.5208 292.805 37.1302 291.633 36.6094C290.591 35.9583 290.005 35.2422 289.875 34.4609ZM335.969 160.438C335.969 157.964 336.034 154.643 336.164 150.477C336.424 146.31 336.62 141.753 336.75 136.805C336.88 131.857 336.945 126.779 336.945 121.57C336.945 116.362 336.815 111.479 336.555 106.922C336.294 102.365 335.839 98.3932 335.188 95.0078C334.667 91.6224 333.885 89.3438 332.844 88.1719C324.641 88.8229 318.391 88.7578 314.094 87.9766C309.797 87.1953 307.583 86.1536 307.453 84.8516C307.453 83.5495 309.667 82.1823 314.094 80.75C318.521 79.1875 325.357 78.0807 334.602 77.4297C334.602 75.8672 334.602 73.1328 334.602 69.2266C334.732 65.1901 334.797 60.9583 334.797 56.5312C334.797 52.1042 334.732 47.9375 334.602 44.0312C334.602 40.125 334.602 37.3906 334.602 35.8281C334.471 34.9167 334.276 33.6797 334.016 32.1172C333.755 30.5547 333.495 28.9271 333.234 27.2344C332.974 25.4115 332.779 23.6536 332.648 21.9609C332.518 20.138 332.583 18.6406 332.844 17.4688C333.104 15.9062 333.755 14.8646 334.797 14.3438C335.969 13.6927 337.141 13.4323 338.312 13.5625C339.484 13.5625 340.526 13.9531 341.438 14.7344C342.479 15.3854 343 16.2969 343 17.4688V75.8672C343 77.1693 344.628 77.8203 347.883 77.8203C351.138 77.6901 355.109 77.3646 359.797 76.8438C364.484 76.3229 369.367 75.8021 374.445 75.2812C379.654 74.6302 384.081 74.4349 387.727 74.6953C391.503 74.9557 394.042 75.8672 395.344 77.4297C396.646 78.862 395.865 81.401 393 85.0469C392.74 85.3073 392.219 85.6328 391.438 86.0234C390.656 86.4141 390.135 86.6094 389.875 86.6094C382.844 86.349 375.422 86.2839 367.609 86.4141C359.797 86.5443 352.375 87.1302 345.344 88.1719C343 88.5625 341.698 90.776 341.438 94.8125C341.307 98.7188 341.633 103.536 342.414 109.266C343.326 114.995 344.302 121.115 345.344 127.625C346.516 134.005 347.232 139.865 347.492 145.203C347.753 150.542 347.167 154.904 345.734 158.289C344.432 161.544 341.698 162.781 337.531 162C337.271 162 336.945 161.805 336.555 161.414C336.164 161.023 335.969 160.698 335.969 160.438ZM405.695 157.312C404.003 155.359 403.417 153.471 403.938 151.648C404.589 149.695 405.63 147.482 407.062 145.008C411.229 143.445 414.354 142.99 416.438 143.641C418.651 144.292 420.018 145.464 420.539 147.156C421.06 148.849 420.93 150.802 420.148 153.016C419.367 155.099 418.195 156.857 416.633 158.289C415.07 159.721 413.312 160.503 411.359 160.633C409.406 160.763 407.518 159.656 405.695 157.312ZM410.188 86.6094C409.927 79.0573 410.188 71.3099 410.969 63.3672C411.88 55.4245 412.076 47.7422 411.555 40.3203C411.294 35.3724 411.229 30.8802 411.359 26.8438C411.49 22.6771 411.49 20.0078 411.359 18.8359C411.229 17.5339 410.904 16.0365 410.383 14.3438C409.992 12.651 409.732 10.9583 409.602 9.26562C409.602 7.57292 409.862 6.07552 410.383 4.77344C411.034 3.34115 412.336 2.36458 414.289 1.84375C417.023 1.0625 419.107 2.10417 420.539 4.96875C420.669 8.09375 420.734 12.651 420.734 18.6406C420.734 24.5 420.734 30.6849 420.734 37.1953C420.734 43.7057 420.734 49.9557 420.734 55.9453C420.734 61.9349 420.799 66.4922 420.93 69.6172C420.93 70.2682 420.539 71.9609 419.758 74.6953C419.107 77.2995 418.195 79.8385 417.023 82.3125C415.982 84.7865 414.81 86.6745 413.508 87.9766C412.336 89.2786 411.229 88.8229 410.188 86.6094Z" fill="white"/>
</svg>
