<svg width="811" height="384" viewBox="0 0 811 384" fill="none" xmlns="http://www.w3.org/2000/svg">
<path d="M59 140C67 -39 324 -39 332 140" stroke="white" stroke-width="10"/>
<path d="M95 192C71 216 84.0001 205 59.0001 230C34.0001 255 -14.4081 213 14.0001 184C33.2001 164.4 52.0001 144.667 59.0001 141" stroke="white" stroke-width="10" stroke-linecap="round"/>
<path d="M296.333 192C320.333 216 307.333 205 332.333 230C357.333 255 405.741 213 377.333 184C358.133 164.4 339.333 144.667 332.333 141" stroke="white" stroke-width="10" stroke-linecap="round"/>
<path d="M58 233C57 272 58 261 58 311C58 400 196 401 196 311" stroke="white" stroke-width="10" stroke-linecap="square"/>
<path d="M333.556 233C334.556 272 333.556 261 333.556 311C333.556 400 195.556 401 195.556 311" stroke="white" stroke-width="10" stroke-linecap="square"/>
<line x1="138.657" y1="91" x2="156" y2="108.343" stroke="white" stroke-width="8" stroke-linecap="round"/>
<line x1="156" y1="90.6569" x2="138.657" y2="108" stroke="white" stroke-width="8" stroke-linecap="round"/>
<line x1="236" y1="90.6569" x2="218.657" y2="108" stroke="white" stroke-width="8" stroke-linecap="round"/>
<line x1="218.657" y1="91" x2="236" y2="108.343" stroke="white" stroke-width="8" stroke-linecap="round"/>
<line x1="132.965" y1="148" x2="250.96" y2="146.956" stroke="white" stroke-width="8"/>
<path d="M212.5 172V148.5H247C246.833 154.667 246.8 163.193 247 172C247.5 194 212.5 194.5 212.5 172Z" stroke="white" stroke-width="8" stroke-linecap="round"/>
<path d="M233 155V152H227V155H233ZM227 170C227 171.657 228.343 173 230 173C231.657 173 233 171.657 233 170H227ZM227 155V170H233V155H227Z" fill="white"/>
<path d="M484.92 140.6C482.253 140.6 480.067 139.8 478.36 138.2C476.76 136.493 475.96 134.253 475.96 131.48V115.16H423.64C421.08 115.16 419 114.573 417.4 113.4C415.907 112.12 415.16 110.573 415.16 108.76C415.16 106.733 415.907 104.92 417.4 103.32L478.04 28.6C478.787 27.64 479.853 26.8933 481.24 26.36C482.733 25.72 484.173 25.4 485.56 25.4C487.907 25.4 489.88 26.0933 491.48 27.48C493.187 28.76 494.04 30.4667 494.04 32.6V100.92H503C505.773 100.92 507.907 101.507 509.4 102.68C511 103.853 511.8 105.667 511.8 108.12C511.8 110.467 511 112.227 509.4 113.4C507.8 114.573 505.667 115.16 503 115.16H494.04V131.48C494.04 134.147 493.187 136.333 491.48 138.04C489.773 139.747 487.587 140.6 484.92 140.6ZM477.08 100.92V53.56L438.52 100.92H477.08ZM573.116 140.6C562.77 140.6 553.81 138.307 546.236 133.72C538.77 129.133 533.063 122.52 529.116 113.88C525.17 105.24 523.196 94.9467 523.196 83C523.196 71.0533 525.17 60.76 529.116 52.12C533.063 43.48 538.77 36.8667 546.236 32.28C553.81 27.6933 562.77 25.4 573.116 25.4C583.463 25.4 592.37 27.6933 599.836 32.28C607.303 36.8667 613.01 43.48 616.956 52.12C621.01 60.76 623.036 71.0533 623.036 83C623.036 94.9467 621.01 105.24 616.956 113.88C613.01 122.52 607.303 129.133 599.836 133.72C592.37 138.307 583.463 140.6 573.116 140.6ZM573.116 126.04C583.143 126.04 590.93 122.253 596.476 114.68C602.023 107.107 604.796 96.5467 604.796 83C604.796 69.4533 602.023 58.8933 596.476 51.32C590.93 43.7467 583.143 39.96 573.116 39.96C563.09 39.96 555.25 43.7467 549.596 51.32C544.05 58.7867 541.276 69.3467 541.276 83C541.276 96.5467 544.05 107.107 549.596 114.68C555.25 122.253 563.09 126.04 573.116 126.04ZM703.826 140.6C701.16 140.6 698.973 139.8 697.266 138.2C695.666 136.493 694.866 134.253 694.866 131.48V115.16H642.546C639.986 115.16 637.906 114.573 636.306 113.4C634.813 112.12 634.066 110.573 634.066 108.76C634.066 106.733 634.813 104.92 636.306 103.32L696.946 28.6C697.693 27.64 698.76 26.8933 700.146 26.36C701.64 25.72 703.08 25.4 704.466 25.4C706.813 25.4 708.786 26.0933 710.386 27.48C712.093 28.76 712.946 30.4667 712.946 32.6V100.92H721.906C724.68 100.92 726.813 101.507 728.306 102.68C729.906 103.853 730.706 105.667 730.706 108.12C730.706 110.467 729.906 112.227 728.306 113.4C726.706 114.573 724.573 115.16 721.906 115.16H712.946V131.48C712.946 134.147 712.093 136.333 710.386 138.04C708.68 139.747 706.493 140.6 703.826 140.6ZM695.986 100.92V53.56L657.426 100.92H695.986Z" fill="white"/>
<path d="M436.724 226C433.084 226 430.228 225.02 428.156 223.06C426.084 221.1 425.048 218.384 425.048 214.912V178.036C425.048 174.676 426.056 172.044 428.072 170.14C430.088 168.18 432.888 167.2 436.472 167.2H462.512C465.144 167.2 466.46 168.292 466.46 170.476C466.46 171.428 466.096 172.184 465.368 172.744C464.696 173.304 463.744 173.584 462.512 173.584H437.144C435.856 173.584 434.82 174.004 434.036 174.844C433.308 175.684 432.944 176.804 432.944 178.204V192.736H456.128C458.76 192.736 460.076 193.828 460.076 196.012C460.076 197.02 459.712 197.804 458.984 198.364C458.312 198.924 457.36 199.204 456.128 199.204H432.944V214.996C432.944 216.396 433.308 217.516 434.036 218.356C434.82 219.196 435.856 219.616 437.144 219.616H464.36C465.648 219.616 466.628 219.896 467.3 220.456C467.972 220.96 468.308 221.744 468.308 222.808C468.308 223.816 467.944 224.6 467.216 225.16C466.544 225.72 465.592 226 464.36 226H436.724ZM478.444 178.372C478.444 174.956 479.452 172.24 481.468 170.224C483.484 168.208 486.368 167.2 490.12 167.2H505.576C521.312 167.2 529.18 173.584 529.18 186.352C529.18 192.4 527.36 197.048 523.72 200.296C520.08 203.488 514.788 205.084 507.844 205.084L522.964 220.54C523.58 221.156 523.888 221.968 523.888 222.976C523.888 224.096 523.44 225.02 522.544 225.748C521.704 226.42 520.836 226.756 519.94 226.756C518.596 226.756 517.392 226.14 516.328 224.908L497.344 205.168H486.928V222.724C486.928 224.012 486.536 225.02 485.752 225.748C484.968 226.476 483.932 226.84 482.644 226.84C481.356 226.84 480.32 226.476 479.536 225.748C478.808 225.02 478.444 224.012 478.444 222.724V178.372ZM505.744 198.448C510.952 198.448 514.732 197.524 517.084 195.676C519.436 193.828 520.612 190.72 520.612 186.352C520.612 181.928 519.38 178.764 516.916 176.86C514.508 174.9 510.784 173.92 505.744 173.92H491.044C489.812 173.92 488.804 174.34 488.02 175.18C487.292 175.964 486.928 177.056 486.928 178.456V198.448H505.744ZM539.148 178.372C539.148 174.956 540.156 172.24 542.172 170.224C544.188 168.208 547.072 167.2 550.824 167.2H566.28C582.016 167.2 589.884 173.584 589.884 186.352C589.884 192.4 588.064 197.048 584.424 200.296C580.784 203.488 575.492 205.084 568.548 205.084L583.668 220.54C584.284 221.156 584.592 221.968 584.592 222.976C584.592 224.096 584.144 225.02 583.248 225.748C582.408 226.42 581.54 226.756 580.644 226.756C579.3 226.756 578.096 226.14 577.032 224.908L558.048 205.168H547.632V222.724C547.632 224.012 547.24 225.02 546.456 225.748C545.672 226.476 544.636 226.84 543.348 226.84C542.06 226.84 541.024 226.476 540.24 225.748C539.512 225.02 539.148 224.012 539.148 222.724V178.372ZM566.448 198.448C571.656 198.448 575.436 197.524 577.788 195.676C580.14 193.828 581.316 190.72 581.316 186.352C581.316 181.928 580.084 178.764 577.62 176.86C575.212 174.9 571.488 173.92 566.448 173.92H551.748C550.516 173.92 549.508 174.34 548.724 175.18C547.996 175.964 547.632 177.056 547.632 178.456V198.448H566.448ZM626.614 226.84C620.678 226.84 615.386 225.58 610.738 223.06C606.146 220.54 602.562 217.012 599.986 212.476C597.466 207.884 596.206 202.592 596.206 196.6C596.206 190.608 597.466 185.344 599.986 180.808C602.562 176.216 606.146 172.66 610.738 170.14C615.386 167.62 620.678 166.36 626.614 166.36C632.55 166.36 637.814 167.62 642.406 170.14C647.054 172.66 650.638 176.216 653.158 180.808C655.734 185.344 657.022 190.608 657.022 196.6C657.022 202.592 655.734 207.884 653.158 212.476C650.638 217.012 647.054 220.54 642.406 223.06C637.814 225.58 632.55 226.84 626.614 226.84ZM626.614 220.288C631.038 220.288 634.93 219.364 638.29 217.516C641.706 215.612 644.366 212.868 646.27 209.284C648.174 205.7 649.126 201.472 649.126 196.6C649.126 191.616 648.146 187.36 646.186 183.832C644.226 180.248 641.51 177.532 638.038 175.684C634.566 173.836 630.59 172.912 626.11 172.912C621.798 172.912 617.962 173.864 614.602 175.768C611.298 177.672 608.722 180.416 606.874 184C605.082 187.528 604.186 191.728 604.186 196.6C604.186 201.472 605.11 205.7 606.958 209.284C608.862 212.868 611.494 215.612 614.854 217.516C618.27 219.364 622.19 220.288 626.614 220.288ZM667.198 178.372C667.198 174.956 668.206 172.24 670.222 170.224C672.238 168.208 675.122 167.2 678.874 167.2H694.33C710.066 167.2 717.934 173.584 717.934 186.352C717.934 192.4 716.114 197.048 712.474 200.296C708.834 203.488 703.542 205.084 696.598 205.084L711.718 220.54C712.334 221.156 712.642 221.968 712.642 222.976C712.642 224.096 712.194 225.02 711.298 225.748C710.458 226.42 709.59 226.756 708.694 226.756C707.35 226.756 706.146 226.14 705.082 224.908L686.098 205.168H675.682V222.724C675.682 224.012 675.29 225.02 674.506 225.748C673.722 226.476 672.686 226.84 671.398 226.84C670.11 226.84 669.074 226.476 668.29 225.748C667.562 225.02 667.198 224.012 667.198 222.724V178.372ZM694.498 198.448C699.706 198.448 703.486 197.524 705.838 195.676C708.19 193.828 709.366 190.72 709.366 186.352C709.366 181.928 708.134 178.764 705.67 176.86C703.262 174.9 699.538 173.92 694.498 173.92H679.798C678.566 173.92 677.558 174.34 676.774 175.18C676.046 175.964 675.682 177.056 675.682 178.456V198.448H694.498Z" fill="white"/>
<path d="M763 26C769.333 81 781 187.2 781 188H792L807 26H763Z" fill="white"/>
<path d="M796 208H778V226H796V208Z" fill="white"/>
<path d="M763 26C769.333 81 781 187.2 781 188H792L807 26H763Z" stroke="white" stroke-width="6" stroke-linecap="round"/>
<path d="M796 208H778V226H796V208Z" stroke="white" stroke-width="6" stroke-linecap="round"/>
<path d="M429.368 289.27C427.64 289.27 426.011 288.973 424.481 288.379C422.969 287.785 421.7 286.957 420.674 285.895C420.44 285.679 420.323 285.418 420.323 285.112C420.323 284.734 420.485 284.401 420.809 284.113C421.043 283.879 421.304 283.762 421.592 283.762C421.97 283.762 422.357 283.951 422.753 284.329C423.563 285.121 424.535 285.733 425.669 286.165C426.821 286.579 428.054 286.786 429.368 286.786C430.7 286.786 431.726 286.552 432.446 286.084C433.184 285.616 433.553 284.959 433.553 284.113C433.553 283.285 433.175 282.619 432.419 282.115C431.663 281.593 430.376 281.134 428.558 280.738C425.876 280.162 423.932 279.406 422.726 278.47C421.52 277.516 420.917 276.292 420.917 274.798C420.917 273.826 421.223 272.962 421.835 272.206C422.465 271.45 423.338 270.865 424.454 270.451C425.588 270.037 426.893 269.83 428.369 269.83C430.025 269.83 431.51 270.109 432.824 270.667C434.156 271.225 435.137 271.999 435.767 272.989C435.947 273.277 436.037 273.556 436.037 273.826C436.037 274.222 435.839 274.555 435.443 274.825C435.209 274.969 434.975 275.041 434.741 275.041C434.525 275.041 434.309 274.987 434.093 274.879C433.877 274.771 433.697 274.627 433.553 274.447C433.031 273.763 432.311 273.241 431.393 272.881C430.493 272.503 429.485 272.314 428.369 272.314C426.965 272.314 425.885 272.53 425.129 272.962C424.391 273.376 424.022 273.988 424.022 274.798C424.022 275.554 424.382 276.175 425.102 276.661C425.822 277.129 427.091 277.57 428.909 277.984C431.663 278.632 433.643 279.433 434.849 280.387C436.055 281.341 436.658 282.583 436.658 284.113C436.658 285.139 436.352 286.048 435.74 286.84C435.146 287.614 434.3 288.217 433.202 288.649C432.104 289.063 430.826 289.27 429.368 289.27ZM446.34 289.27C444.774 289.27 443.397 288.982 442.209 288.406C441.021 287.812 440.103 286.993 439.455 285.949C438.825 284.905 438.51 283.717 438.51 282.385C438.51 281.053 438.825 279.865 439.455 278.821C440.103 277.777 441.021 276.967 442.209 276.391C443.397 275.797 444.774 275.5 446.34 275.5C447.906 275.5 449.283 275.797 450.471 276.391C451.659 276.967 452.568 277.777 453.198 278.821C453.846 279.865 454.17 281.053 454.17 282.385C454.17 283.717 453.846 284.905 453.198 285.949C452.568 286.993 451.659 287.812 450.471 288.406C449.283 288.982 447.906 289.27 446.34 289.27ZM446.34 286.84C447.798 286.84 448.959 286.444 449.823 285.652C450.687 284.86 451.119 283.771 451.119 282.385C451.119 280.999 450.687 279.91 449.823 279.118C448.959 278.326 447.798 277.93 446.34 277.93C444.864 277.93 443.694 278.326 442.83 279.118C441.984 279.91 441.561 280.999 441.561 282.385C441.561 283.771 441.984 284.86 442.83 285.652C443.694 286.444 444.864 286.84 446.34 286.84ZM458.199 289.27C457.731 289.27 457.362 289.144 457.092 288.892C456.822 288.64 456.687 288.289 456.687 287.839V276.931C456.687 276.481 456.813 276.13 457.065 275.878C457.335 275.626 457.695 275.5 458.145 275.5C458.613 275.5 458.973 275.626 459.225 275.878C459.495 276.13 459.63 276.481 459.63 276.931V278.065C460.8 276.535 462.339 275.77 464.247 275.77H464.868C465.354 275.77 465.732 275.878 466.002 276.094C466.29 276.31 466.434 276.607 466.434 276.985C466.434 277.381 466.29 277.687 466.002 277.903C465.732 278.101 465.354 278.2 464.868 278.2H464.004C462.69 278.2 461.646 278.605 460.872 279.415C460.098 280.207 459.711 281.296 459.711 282.682V287.839C459.711 288.271 459.567 288.622 459.279 288.892C459.009 289.144 458.649 289.27 458.199 289.27ZM469.985 289.27C469.517 289.27 469.148 289.144 468.878 288.892C468.608 288.64 468.473 288.289 468.473 287.839V276.931C468.473 276.481 468.599 276.13 468.851 275.878C469.121 275.626 469.481 275.5 469.931 275.5C470.399 275.5 470.759 275.626 471.011 275.878C471.281 276.13 471.416 276.481 471.416 276.931V278.065C472.586 276.535 474.125 275.77 476.033 275.77H476.654C477.14 275.77 477.518 275.878 477.788 276.094C478.076 276.31 478.22 276.607 478.22 276.985C478.22 277.381 478.076 277.687 477.788 277.903C477.518 278.101 477.14 278.2 476.654 278.2H475.79C474.476 278.2 473.432 278.605 472.658 279.415C471.884 280.207 471.497 281.296 471.497 282.682V287.839C471.497 288.271 471.353 288.622 471.065 288.892C470.795 289.144 470.435 289.27 469.985 289.27ZM486.739 295.75C485.425 295.75 484.228 295.543 483.148 295.129C482.086 294.733 481.285 294.184 480.745 293.482C480.547 293.194 480.448 292.924 480.448 292.672C480.448 292.276 480.637 291.925 481.015 291.619C481.249 291.457 481.501 291.376 481.771 291.376C482.221 291.376 482.626 291.583 482.986 291.997C483.382 292.429 483.895 292.762 484.525 292.996C485.173 293.23 485.884 293.347 486.658 293.347C488.044 293.347 489.115 292.96 489.871 292.186C490.627 291.412 491.005 290.314 491.005 288.892V287.515C490.537 288.037 489.934 288.451 489.196 288.757C488.458 289.063 487.702 289.216 486.928 289.216C484.696 289.216 482.95 288.613 481.69 287.407C480.448 286.183 479.827 284.482 479.827 282.304V276.85C479.827 276.472 479.971 276.157 480.259 275.905C480.547 275.635 480.916 275.5 481.366 275.5C481.78 275.5 482.131 275.635 482.419 275.905C482.707 276.157 482.851 276.472 482.851 276.85V282.304C482.851 283.744 483.211 284.869 483.931 285.679C484.651 286.471 485.65 286.867 486.928 286.867C488.17 286.867 489.133 286.48 489.817 285.706C490.519 284.914 490.87 283.807 490.87 282.385V277.12C490.87 276.616 491.005 276.22 491.275 275.932C491.545 275.644 491.923 275.5 492.409 275.5C492.895 275.5 493.273 275.644 493.543 275.932C493.813 276.22 493.948 276.616 493.948 277.12V288.541C493.948 290.773 493.3 292.528 492.004 293.806C490.726 295.102 488.971 295.75 486.739 295.75ZM496.763 292.591C496.655 292.465 496.601 292.33 496.601 292.186C496.601 291.952 496.763 291.709 497.087 291.457C497.483 291.133 497.825 290.782 498.113 290.404C498.401 290.044 498.581 289.693 498.653 289.351C498.563 289.369 498.437 289.378 498.275 289.378C497.807 289.378 497.402 289.225 497.06 288.919C496.736 288.613 496.574 288.217 496.574 287.731C496.574 287.119 496.754 286.642 497.114 286.3C497.492 285.958 498.023 285.787 498.707 285.787C499.391 285.787 499.922 286.003 500.3 286.435C500.696 286.849 500.894 287.425 500.894 288.163C500.894 288.865 500.651 289.603 500.165 290.377C499.697 291.151 499.049 291.826 498.221 292.402C497.843 292.672 497.528 292.807 497.276 292.807C497.078 292.807 496.907 292.735 496.763 292.591ZM521.08 285.787C521.35 286.003 521.485 286.255 521.485 286.543C521.485 286.849 521.368 287.155 521.134 287.461C520.756 288.019 520.216 288.46 519.514 288.784C518.812 289.108 518.038 289.27 517.192 289.27C515.842 289.27 514.78 288.892 514.006 288.136C513.232 287.38 512.845 286.345 512.845 285.031V278.173H511.63C511.144 278.173 510.757 278.065 510.469 277.849C510.199 277.633 510.064 277.345 510.064 276.985C510.064 276.607 510.199 276.31 510.469 276.094C510.757 275.878 511.144 275.77 511.63 275.77H512.845V271.504C512.845 271.054 512.98 270.703 513.25 270.451C513.52 270.199 513.889 270.073 514.357 270.073C514.825 270.073 515.194 270.199 515.464 270.451C515.734 270.703 515.869 271.054 515.869 271.504V275.77H518.812C519.28 275.77 519.649 275.878 519.919 276.094C520.207 276.31 520.351 276.607 520.351 276.985C520.351 277.345 520.216 277.633 519.946 277.849C519.676 278.065 519.298 278.173 518.812 278.173H515.869V285.274C515.869 285.76 516.004 286.147 516.274 286.435C516.544 286.705 516.922 286.84 517.408 286.84C518.074 286.84 518.668 286.579 519.19 286.057C519.604 285.679 519.982 285.49 520.324 285.49C520.612 285.49 520.864 285.589 521.08 285.787ZM525.25 289.27C524.782 289.27 524.413 289.144 524.143 288.892C523.873 288.64 523.738 288.289 523.738 287.839V269.938C523.738 269.488 523.873 269.137 524.143 268.885C524.413 268.633 524.782 268.507 525.25 268.507C525.718 268.507 526.087 268.633 526.357 268.885C526.627 269.137 526.762 269.488 526.762 269.938V277.984C528.076 276.328 529.831 275.5 532.027 275.5C533.737 275.5 535.078 276.022 536.05 277.066C537.04 278.11 537.535 279.55 537.535 281.386V287.839C537.535 288.289 537.391 288.64 537.103 288.892C536.833 289.144 536.464 289.27 535.996 289.27C535.528 289.27 535.159 289.144 534.889 288.892C534.637 288.64 534.511 288.289 534.511 287.839V281.386C534.511 280.27 534.241 279.415 533.701 278.821C533.161 278.227 532.396 277.93 531.406 277.93C529.966 277.93 528.832 278.362 528.004 279.226C527.176 280.072 526.762 281.224 526.762 282.682V287.839C526.762 288.271 526.618 288.622 526.33 288.892C526.06 289.144 525.7 289.27 525.25 289.27ZM547.451 289.27C545.903 289.27 544.553 289 543.401 288.46C542.267 287.902 541.394 287.11 540.782 286.084C540.188 285.058 539.891 283.843 539.891 282.439C539.891 280.261 540.539 278.56 541.835 277.336C543.131 276.112 544.931 275.5 547.235 275.5C548.657 275.5 549.917 275.725 551.015 276.175C552.113 276.625 552.968 277.255 553.58 278.065C554.192 278.857 554.498 279.766 554.498 280.792C554.498 281.62 554.246 282.259 553.742 282.709C553.238 283.159 552.527 283.384 551.609 283.384H542.861C542.861 284.5 543.257 285.364 544.049 285.976C544.841 286.588 545.975 286.894 547.451 286.894C548.297 286.894 549.044 286.804 549.692 286.624C550.34 286.444 550.943 286.156 551.501 285.76C552.023 285.418 552.419 285.247 552.689 285.247C552.923 285.247 553.166 285.373 553.418 285.625C553.706 285.895 553.85 286.192 553.85 286.516C553.85 286.858 553.697 287.146 553.391 287.38C551.879 288.64 549.899 289.27 547.451 289.27ZM550.691 281.197C550.997 281.197 551.222 281.134 551.366 281.008C551.51 280.882 551.582 280.666 551.582 280.36C551.582 279.622 551.186 279.028 550.394 278.578C549.602 278.11 548.549 277.876 547.235 277.876C545.903 277.876 544.85 278.182 544.076 278.794C543.302 279.388 542.915 280.189 542.915 281.197H550.691ZM565.723 297.073C565.255 297.073 564.886 296.947 564.616 296.695C564.364 296.443 564.238 296.092 564.238 295.642V276.931C564.238 276.481 564.364 276.13 564.616 275.878C564.886 275.626 565.255 275.5 565.723 275.5C566.191 275.5 566.56 275.635 566.83 275.905C567.1 276.157 567.235 276.499 567.235 276.931V277.876C567.991 277.066 568.81 276.472 569.692 276.094C570.574 275.698 571.591 275.5 572.743 275.5C574.885 275.5 576.586 276.112 577.846 277.336C579.106 278.56 579.736 280.234 579.736 282.358C579.736 283.762 579.448 284.986 578.872 286.03C578.296 287.074 577.477 287.875 576.415 288.433C575.353 288.991 574.102 289.27 572.662 289.27C571.528 289.27 570.529 289.09 569.665 288.73C568.801 288.352 568 287.758 567.262 286.948V295.642C567.262 296.074 567.118 296.416 566.83 296.668C566.56 296.938 566.191 297.073 565.723 297.073ZM572.122 286.84C573.562 286.84 574.678 286.444 575.47 285.652C576.28 284.86 576.685 283.753 576.685 282.331C576.685 280.927 576.289 279.847 575.497 279.091C574.705 278.317 573.58 277.93 572.122 277.93C570.592 277.93 569.395 278.326 568.531 279.118C567.667 279.892 567.235 280.972 567.235 282.358C567.235 283.726 567.676 284.815 568.558 285.625C569.44 286.435 570.628 286.84 572.122 286.84ZM587.459 289.27C585.749 289.27 584.381 288.865 583.355 288.055C582.329 287.245 581.816 286.165 581.816 284.815C581.816 283.483 582.356 282.421 583.436 281.629C584.534 280.837 586.01 280.441 587.864 280.441C589.664 280.441 591.068 280.855 592.076 281.683V280.657C592.076 279.757 591.788 279.073 591.212 278.605C590.654 278.119 589.826 277.876 588.728 277.876C587.18 277.876 585.848 278.218 584.732 278.902C584.354 279.118 584.012 279.226 583.706 279.226C583.382 279.226 583.085 279.082 582.815 278.794C582.635 278.596 582.545 278.362 582.545 278.092C582.545 277.66 582.734 277.318 583.112 277.066C583.76 276.58 584.579 276.202 585.569 275.932C586.559 275.644 587.594 275.5 588.674 275.5C590.708 275.5 592.301 275.959 593.453 276.877C594.605 277.795 595.181 279.064 595.181 280.684V287.92C595.181 288.334 595.046 288.667 594.776 288.919C594.506 289.153 594.137 289.27 593.669 289.27C593.201 289.27 592.832 289.153 592.562 288.919C592.31 288.685 592.184 288.361 592.184 287.947V287.434C591.122 288.658 589.547 289.27 587.459 289.27ZM588.107 287.056C589.331 287.056 590.303 286.858 591.023 286.462C591.743 286.048 592.103 285.49 592.103 284.788C592.103 284.104 591.752 283.564 591.05 283.168C590.348 282.772 589.385 282.574 588.161 282.574C587.099 282.574 586.271 282.772 585.677 283.168C585.101 283.564 584.813 284.113 584.813 284.815C584.813 285.535 585.092 286.093 585.65 286.489C586.226 286.867 587.045 287.056 588.107 287.056ZM605.468 295.75C604.1 295.75 602.849 295.552 601.715 295.156C600.581 294.76 599.69 294.202 599.042 293.482C598.826 293.248 598.718 292.978 598.718 292.672C598.718 292.258 598.907 291.916 599.285 291.646C599.519 291.466 599.771 291.376 600.041 291.376C600.455 291.376 600.887 291.592 601.337 292.024C601.769 292.456 602.327 292.789 603.011 293.023C603.695 293.275 604.451 293.401 605.279 293.401C606.809 293.401 607.988 292.978 608.816 292.132C609.644 291.286 610.049 290.098 610.031 288.568L610.004 287.002C608.726 288.55 606.926 289.324 604.604 289.324C602.372 289.324 600.635 288.712 599.393 287.488C598.151 286.264 597.53 284.59 597.53 282.466C597.53 280.324 598.16 278.632 599.42 277.39C600.698 276.13 602.489 275.5 604.793 275.5C605.801 275.5 606.755 275.707 607.655 276.121C608.555 276.535 609.347 277.12 610.031 277.876V276.931C610.031 276.499 610.166 276.157 610.436 275.905C610.724 275.635 611.093 275.5 611.543 275.5C611.993 275.5 612.353 275.626 612.623 275.878C612.893 276.13 613.028 276.481 613.028 276.931V288.568C613.028 289.972 612.722 291.214 612.11 292.294C611.498 293.392 610.616 294.238 609.464 294.832C608.33 295.444 606.998 295.75 605.468 295.75ZM605.144 286.867C606.584 286.867 607.754 286.48 608.654 285.706C609.554 284.932 610.004 283.834 610.004 282.412C610.004 281.044 609.581 279.955 608.735 279.145C607.889 278.335 606.71 277.93 605.198 277.93C603.74 277.93 602.606 278.326 601.796 279.118C600.986 279.91 600.581 281.026 600.581 282.466C600.581 283.852 600.977 284.932 601.769 285.706C602.561 286.48 603.686 286.867 605.144 286.867ZM623.046 289.27C621.498 289.27 620.148 289 618.996 288.46C617.862 287.902 616.989 287.11 616.377 286.084C615.783 285.058 615.486 283.843 615.486 282.439C615.486 280.261 616.134 278.56 617.43 277.336C618.726 276.112 620.526 275.5 622.83 275.5C624.252 275.5 625.512 275.725 626.61 276.175C627.708 276.625 628.563 277.255 629.175 278.065C629.787 278.857 630.093 279.766 630.093 280.792C630.093 281.62 629.841 282.259 629.337 282.709C628.833 283.159 628.122 283.384 627.204 283.384H618.456C618.456 284.5 618.852 285.364 619.644 285.976C620.436 286.588 621.57 286.894 623.046 286.894C623.892 286.894 624.639 286.804 625.287 286.624C625.935 286.444 626.538 286.156 627.096 285.76C627.618 285.418 628.014 285.247 628.284 285.247C628.518 285.247 628.761 285.373 629.013 285.625C629.301 285.895 629.445 286.192 629.445 286.516C629.445 286.858 629.292 287.146 628.986 287.38C627.474 288.64 625.494 289.27 623.046 289.27ZM626.286 281.197C626.592 281.197 626.817 281.134 626.961 281.008C627.105 280.882 627.177 280.666 627.177 280.36C627.177 279.622 626.781 279.028 625.989 278.578C625.197 278.11 624.144 277.876 622.83 277.876C621.498 277.876 620.445 278.182 619.671 278.794C618.897 279.388 618.51 280.189 618.51 281.197H626.286ZM641.345 289.27C640.877 289.27 640.508 289.144 640.238 288.892C639.968 288.64 639.833 288.289 639.833 287.839V276.931C639.833 276.481 639.959 276.13 640.211 275.878C640.481 275.626 640.841 275.5 641.291 275.5C641.759 275.5 642.119 275.626 642.371 275.878C642.641 276.13 642.776 276.481 642.776 276.931V277.984C644.108 276.328 645.89 275.5 648.122 275.5C649.832 275.5 651.173 276.022 652.145 277.066C653.135 278.11 653.63 279.55 653.63 281.386V287.839C653.63 288.289 653.486 288.64 653.198 288.892C652.928 289.144 652.559 289.27 652.091 289.27C651.623 289.27 651.254 289.144 650.984 288.892C650.732 288.64 650.606 288.289 650.606 287.839V281.386C650.606 280.27 650.336 279.415 649.796 278.821C649.256 278.227 648.491 277.93 647.501 277.93C646.061 277.93 644.927 278.362 644.099 279.226C643.271 280.072 642.857 281.224 642.857 282.682V287.839C642.857 288.271 642.713 288.622 642.425 288.892C642.155 289.144 641.795 289.27 641.345 289.27ZM663.447 289.27C661.881 289.27 660.504 288.982 659.316 288.406C658.128 287.812 657.21 286.993 656.562 285.949C655.932 284.905 655.617 283.717 655.617 282.385C655.617 281.053 655.932 279.865 656.562 278.821C657.21 277.777 658.128 276.967 659.316 276.391C660.504 275.797 661.881 275.5 663.447 275.5C665.013 275.5 666.39 275.797 667.578 276.391C668.766 276.967 669.675 277.777 670.305 278.821C670.953 279.865 671.277 281.053 671.277 282.385C671.277 283.717 670.953 284.905 670.305 285.949C669.675 286.993 668.766 287.812 667.578 288.406C666.39 288.982 665.013 289.27 663.447 289.27ZM663.447 286.84C664.905 286.84 666.066 286.444 666.93 285.652C667.794 284.86 668.226 283.771 668.226 282.385C668.226 280.999 667.794 279.91 666.93 279.118C666.066 278.326 664.905 277.93 663.447 277.93C661.971 277.93 660.801 278.326 659.937 279.118C659.091 279.91 658.668 280.999 658.668 282.385C658.668 283.771 659.091 284.86 659.937 285.652C660.801 286.444 661.971 286.84 663.447 286.84ZM683.449 285.787C683.719 286.003 683.854 286.255 683.854 286.543C683.854 286.849 683.737 287.155 683.503 287.461C683.125 288.019 682.585 288.46 681.883 288.784C681.181 289.108 680.407 289.27 679.561 289.27C678.211 289.27 677.149 288.892 676.375 288.136C675.601 287.38 675.214 286.345 675.214 285.031V278.173H673.999C673.513 278.173 673.126 278.065 672.838 277.849C672.568 277.633 672.433 277.345 672.433 276.985C672.433 276.607 672.568 276.31 672.838 276.094C673.126 275.878 673.513 275.77 673.999 275.77H675.214V271.504C675.214 271.054 675.349 270.703 675.619 270.451C675.889 270.199 676.258 270.073 676.726 270.073C677.194 270.073 677.563 270.199 677.833 270.451C678.103 270.703 678.238 271.054 678.238 271.504V275.77H681.181C681.649 275.77 682.018 275.878 682.288 276.094C682.576 276.31 682.72 276.607 682.72 276.985C682.72 277.345 682.585 277.633 682.315 277.849C682.045 278.065 681.667 278.173 681.181 278.173H678.238V285.274C678.238 285.76 678.373 286.147 678.643 286.435C678.913 286.705 679.291 286.84 679.777 286.84C680.443 286.84 681.037 286.579 681.559 286.057C681.973 285.679 682.351 285.49 682.693 285.49C682.981 285.49 683.233 285.589 683.449 285.787ZM703.349 270.127C703.709 270.379 703.889 270.685 703.889 271.045C703.889 271.297 703.808 271.531 703.646 271.747C703.376 272.125 703.07 272.314 702.728 272.314C702.53 272.314 702.26 272.242 701.918 272.098C701.234 271.756 700.541 271.585 699.839 271.585C699.281 271.585 698.84 271.756 698.516 272.098C698.21 272.422 698.057 272.881 698.057 273.475V275.77H701.405C701.873 275.77 702.242 275.878 702.512 276.094C702.8 276.31 702.944 276.607 702.944 276.985C702.944 277.345 702.8 277.633 702.512 277.849C702.242 278.065 701.873 278.173 701.405 278.173H698.057V287.839C698.057 288.289 697.922 288.64 697.652 288.892C697.382 289.144 697.013 289.27 696.545 289.27C696.077 289.27 695.708 289.144 695.438 288.892C695.168 288.64 695.033 288.289 695.033 287.839V278.173H694.196C693.728 278.173 693.35 278.065 693.062 277.849C692.792 277.633 692.657 277.345 692.657 276.985C692.657 276.607 692.792 276.31 693.062 276.094C693.332 275.878 693.71 275.77 694.196 275.77H695.033V273.583C695.033 272.251 695.447 271.18 696.275 270.37C697.103 269.56 698.192 269.155 699.542 269.155C700.388 269.155 701.117 269.236 701.729 269.398C702.341 269.542 702.881 269.785 703.349 270.127ZM711.146 289.27C709.58 289.27 708.203 288.982 707.015 288.406C705.827 287.812 704.909 286.993 704.261 285.949C703.631 284.905 703.316 283.717 703.316 282.385C703.316 281.053 703.631 279.865 704.261 278.821C704.909 277.777 705.827 276.967 707.015 276.391C708.203 275.797 709.58 275.5 711.146 275.5C712.712 275.5 714.089 275.797 715.277 276.391C716.465 276.967 717.374 277.777 718.004 278.821C718.652 279.865 718.976 281.053 718.976 282.385C718.976 283.717 718.652 284.905 718.004 285.949C717.374 286.993 716.465 287.812 715.277 288.406C714.089 288.982 712.712 289.27 711.146 289.27ZM711.146 286.84C712.604 286.84 713.765 286.444 714.629 285.652C715.493 284.86 715.925 283.771 715.925 282.385C715.925 280.999 715.493 279.91 714.629 279.118C713.765 278.326 712.604 277.93 711.146 277.93C709.67 277.93 708.5 278.326 707.636 279.118C706.79 279.91 706.367 280.999 706.367 282.385C706.367 283.771 706.79 284.86 707.636 285.652C708.5 286.444 709.67 286.84 711.146 286.84ZM727.162 289.27C725.344 289.27 723.922 288.748 722.896 287.704C721.87 286.642 721.357 285.175 721.357 283.303V276.931C721.357 276.481 721.492 276.13 721.762 275.878C722.05 275.626 722.428 275.5 722.896 275.5C723.364 275.5 723.724 275.626 723.976 275.878C724.246 276.13 724.381 276.481 724.381 276.931V283.303C724.381 284.419 724.678 285.292 725.272 285.922C725.866 286.534 726.694 286.84 727.756 286.84C729.088 286.84 730.15 286.417 730.942 285.571C731.734 284.707 732.13 283.546 732.13 282.088V276.931C732.13 276.481 732.265 276.13 732.535 275.878C732.805 275.626 733.174 275.5 733.642 275.5C734.11 275.5 734.479 275.626 734.749 275.878C735.019 276.13 735.154 276.481 735.154 276.931V287.839C735.154 288.289 735.028 288.64 734.776 288.892C734.524 289.144 734.164 289.27 733.696 289.27C733.228 289.27 732.859 289.144 732.589 288.892C732.337 288.622 732.211 288.271 732.211 287.839V286.786C730.897 288.442 729.214 289.27 727.162 289.27ZM739.589 289.27C739.121 289.27 738.752 289.144 738.482 288.892C738.212 288.64 738.077 288.289 738.077 287.839V276.931C738.077 276.481 738.203 276.13 738.455 275.878C738.725 275.626 739.085 275.5 739.535 275.5C740.003 275.5 740.363 275.626 740.615 275.878C740.885 276.13 741.02 276.481 741.02 276.931V277.984C742.352 276.328 744.134 275.5 746.366 275.5C748.076 275.5 749.417 276.022 750.389 277.066C751.379 278.11 751.874 279.55 751.874 281.386V287.839C751.874 288.289 751.73 288.64 751.442 288.892C751.172 289.144 750.803 289.27 750.335 289.27C749.867 289.27 749.498 289.144 749.228 288.892C748.976 288.64 748.85 288.289 748.85 287.839V281.386C748.85 280.27 748.58 279.415 748.04 278.821C747.5 278.227 746.735 277.93 745.745 277.93C744.305 277.93 743.171 278.362 742.343 279.226C741.515 280.072 741.101 281.224 741.101 282.682V287.839C741.101 288.271 740.957 288.622 740.669 288.892C740.399 289.144 740.039 289.27 739.589 289.27ZM761.439 289.27C760.017 289.27 758.757 289 757.659 288.46C756.579 287.902 755.733 287.11 755.121 286.084C754.527 285.04 754.23 283.816 754.23 282.412C754.23 281.026 754.518 279.811 755.094 278.767C755.688 277.723 756.534 276.922 757.632 276.364C758.73 275.788 760.026 275.5 761.52 275.5C762.69 275.5 763.68 275.698 764.49 276.094C765.3 276.49 766.038 277.066 766.704 277.822L766.731 269.938C766.731 269.488 766.866 269.137 767.136 268.885C767.406 268.633 767.775 268.507 768.243 268.507C768.711 268.507 769.08 268.633 769.35 268.885C769.62 269.137 769.755 269.488 769.755 269.938V287.839C769.755 288.289 769.62 288.64 769.35 288.892C769.08 289.144 768.711 289.27 768.243 289.27C767.793 289.27 767.424 289.144 767.136 288.892C766.866 288.622 766.731 288.271 766.731 287.839V286.894C765.489 288.478 763.725 289.27 761.439 289.27ZM761.871 286.84C763.383 286.84 764.571 286.444 765.435 285.652C766.299 284.86 766.731 283.771 766.731 282.385C766.731 280.999 766.281 279.91 765.381 279.118C764.499 278.326 763.329 277.93 761.871 277.93C760.431 277.93 759.306 278.335 758.496 279.145C757.686 279.937 757.281 281.026 757.281 282.412C757.281 283.834 757.686 284.932 758.496 285.706C759.306 286.462 760.431 286.84 761.871 286.84Z" fill="white"/>
</svg>
