<svg width="347" height="347" viewBox="0 0 347 347" fill="none" xmlns="http://www.w3.org/2000/svg">
<circle cx="173.5" cy="173.5" r="168.5" stroke="black" stroke-width="10"/>
<line x1="69.9043" y1="46.8765" x2="173.904" y2="176.877" stroke="black" stroke-width="10"/>
<line x1="169.069" y1="175.772" x2="330.696" y2="116.944" stroke="black" stroke-width="10"/>
<line x1="171.832" y1="177.51" x2="231.685" y2="13.0643" stroke="black" stroke-width="10"/>
<line x1="189.999" y1="137.923" x2="190.999" y2="163.923" stroke="black" stroke-width="4"/>
<line x1="198.999" y1="112.923" x2="200.92" y2="162.886" stroke="black" stroke-width="4"/>
<line x1="207.999" y1="80.9231" x2="210.881" y2="155.868" stroke="black" stroke-width="4"/>
<line x1="216.999" y1="58.9231" x2="220.842" y2="158.849" stroke="black" stroke-width="4"/>
<line x1="225.999" y1="36.9231" x2="230.611" y2="156.834" stroke="black" stroke-width="4"/>
<line x1="234.999" y1="18.9231" x2="239.88" y2="145.829" stroke="black" stroke-width="4"/>
<line x1="244.999" y1="18.9231" x2="249.88" y2="145.829" stroke="black" stroke-width="4"/>
<line x1="254.999" y1="23.9231" x2="259.764" y2="147.832" stroke="black" stroke-width="4"/>
<line x1="264.999" y1="29.9231" x2="269.226" y2="139.842" stroke="black" stroke-width="4"/>
<line x1="274.999" y1="37.9231" x2="278.842" y2="137.849" stroke="black" stroke-width="4"/>
<line x1="284.999" y1="42.9231" x2="288.457" y2="132.857" stroke="black" stroke-width="4"/>
<line x1="294.999" y1="53.9231" x2="297.881" y2="128.868" stroke="black" stroke-width="4"/>
<line x1="304.999" y1="66.9231" x2="307.381" y2="128.877" stroke="black" stroke-width="4"/>
<line x1="314.999" y1="78.9231" x2="316.536" y2="118.894" stroke="black" stroke-width="4"/>
<line x1="323.999" y1="99.9231" x2="324.575" y2="114.912" stroke="black" stroke-width="4"/>
</svg>
