<svg width="323" height="429" viewBox="0 0 323 429" fill="none" xmlns="http://www.w3.org/2000/svg">
<path d="M286 6H157H33C6 6 6 6 6 35V391C6 423 6.00001 423 40 423H286C317 423 317 423 317 391V35C317 6 317 6 286 6Z" stroke="black" stroke-width="11"/>
<circle cx="63" cy="88" r="25.5" stroke="black" stroke-width="11"/>
<circle cx="63" cy="173" r="25.5" stroke="black" stroke-width="11"/>
<circle cx="63" cy="259" r="25.5" stroke="black" stroke-width="11"/>
<circle cx="63" cy="343" r="25.5" stroke="black" stroke-width="11"/>
<line x1="124.5" y1="88.5" x2="277.5" y2="88.5" stroke="black" stroke-width="11" stroke-linecap="round"/>
<line x1="124.5" y1="173.5" x2="277.5" y2="173.5" stroke="black" stroke-width="11" stroke-linecap="round"/>
<line x1="124.5" y1="257.5" x2="277.5" y2="257.5" stroke="black" stroke-width="11" stroke-linecap="round"/>
<line x1="124.5" y1="343.5" x2="277.5" y2="343.5" stroke="black" stroke-width="11" stroke-linecap="round"/>
<path d="M55.2487 86.0363C53.3515 84.4309 50.5121 84.6675 48.9067 86.5648C47.3014 88.462 47.538 91.3014 49.4352 92.9067L55.2487 86.0363ZM55.5648 98.0933L59 101L64.8135 94.1295L61.3782 91.2228L55.5648 98.0933ZM49.4352 92.9067L55.5648 98.0933L61.3782 91.2228L55.2487 86.0363L49.4352 92.9067Z" fill="black"/>
<path d="M55.2487 171.036C53.3515 169.431 50.5121 169.668 48.9067 171.565C47.3014 173.462 47.538 176.301 49.4352 177.907L55.2487 171.036ZM55.5648 183.093L59 186L64.8135 179.13L61.3782 176.223L55.5648 183.093ZM49.4352 177.907L55.5648 183.093L61.3782 176.223L55.2487 171.036L49.4352 177.907Z" fill="black"/>
<path d="M58.7033 94.9012L55.9231 98.4396L63 104L65.7802 100.462L58.7033 94.9012ZM76.901 86.3078C78.4364 84.3536 78.097 81.5247 76.1428 79.9892C74.1885 78.4537 71.3596 78.7932 69.8241 80.7474L76.901 86.3078ZM65.7802 100.462L76.901 86.3078L69.8241 80.7474L58.7033 94.9012L65.7802 100.462Z" fill="black"/>
<path d="M58.7033 179.901L55.9231 183.44L63 189L65.7802 185.462L58.7033 179.901ZM76.901 171.308C78.4364 169.354 78.097 166.525 76.1428 164.989C74.1885 163.454 71.3596 163.793 69.8241 165.747L76.901 171.308ZM65.7802 185.462L76.901 171.308L69.8241 165.747L58.7033 179.901L65.7802 185.462Z" fill="black"/>
</svg>
